<?xml version="1.0" encoding="UTF-8"?>
<svg xmlns="http://www.w3.org/2000/svg" width="180" height="29" fill="none">
  <g clip-path="url(#Layer_1__a)">
    <path d="M28.06 2.488C26.598 1.074 24.464.364 21.655.364H0v19.618c0 2.721.732 4.79 2.191 6.206 1.46 1.414 3.594 2.122 6.405 2.122H30.25V8.694c0-2.721-.73-4.79-2.189-6.206h-.002Zm-5.11 19.431H7.303V6.76H22.95v15.16Z" fill="url(#Layer_1__b)"></path>
    <path d="M92.597 23.51c-1.873-.058-3.423-.361-4.646-.91-1.222-.547-2.128-1.243-2.718-2.083-.588-.84-.885-1.72-.89-2.637a.52.52 0 0 1 .174-.384c.11-.1.246-.148.408-.144l4.256.133c.25.01.444.053.586.136.14.083.288.194.443.338.153.196.336.378.545.55.21.17.48.31.818.415.335.104.727.165 1.173.178.82.027 1.457-.063 1.912-.264.453-.203.687-.493.698-.873a.889.889 0 0 0-.338-.737c-.234-.199-.635-.384-1.2-.557a27.47 27.47 0 0 0-2.313-.565c-1.367-.268-2.542-.637-3.526-1.109-.985-.47-1.728-1.093-2.23-1.861s-.734-1.707-.698-2.813c.038-1.124.396-2.108 1.076-2.953.68-.844 1.613-1.49 2.797-1.938 1.185-.447 2.554-.648 4.106-.598 1.283.04 2.416.24 3.396.6s1.8.814 2.459 1.362c.66.548 1.16 1.13 1.495 1.748.336.618.505 1.203.505 1.755a.547.547 0 0 1-.187.397.55.55 0 0 1-.394.157l-4.47-.14a1.306 1.306 0 0 1-.546-.12 1.148 1.148 0 0 1-.403-.349c-.08-.244-.297-.467-.648-.67-.352-.2-.802-.31-1.356-.327-.606-.02-1.074.065-1.4.255a.965.965 0 0 0-.512.854.9.9 0 0 0 .273.683c.189.196.531.375 1.026.539.496.163 1.185.345 2.072.545 1.687.295 3.045.683 4.074 1.166 1.03.482 1.773 1.093 2.23 1.835.457.742.669 1.656.633 2.745-.041 1.23-.442 2.272-1.203 3.13-.761.86-1.788 1.506-3.078 1.942-1.293.437-2.76.629-4.4.576l.001-.006Zm19.701 4.678a.702.702 0 0 1-.482-.194.618.618 0 0 1-.214-.48v-5.657c-.392.572-.905.99-1.54 1.26-.633.267-1.362.4-2.182.4-.82 0-1.577-.128-2.263-.388a4.87 4.87 0 0 1-1.782-1.154c-.5-.511-.892-1.137-1.178-1.882-.286-.744-.446-1.6-.482-2.568-.018-.38-.027-.718-.027-1.013 0-.294.009-.622.027-.986.055-1.021.223-1.912.509-2.674.286-.761.678-1.388 1.178-1.88.5-.494 1.088-.86 1.768-1.103.678-.242 1.428-.362 2.25-.362.964 0 1.781.168 2.45.506.669.338 1.209.766 1.619 1.286v-.856c0-.19.068-.351.201-.48a.685.685 0 0 1 .495-.194h3.777c.196 0 .362.065.495.194s.2.29.2.48v17.075c0 .19-.067.351-.2.48a.686.686 0 0 1-.495.194h-4.124v-.004Zm-2.596-8.72c.446 0 .804-.088 1.072-.26.268-.173.468-.398.603-.675.133-.277.21-.596.228-.96a9.96 9.96 0 0 0 .054-.974c0-.285-.018-.608-.054-.973a3.47 3.47 0 0 0-.201-1.039 1.579 1.579 0 0 0-.576-.752c-.268-.19-.642-.286-1.124-.286-.446 0-.804.091-1.072.272a1.508 1.508 0 0 0-.577.753 4.31 4.31 0 0 0-.227 1.102 8.533 8.533 0 0 0 0 1.661c.036.415.11.784.227 1.102.115.321.309.572.577.753.268.181.624.273 1.072.273l-.002.002Zm13.823 4.047c-.964 0-1.845-.216-2.637-.648-.795-.432-1.424-1.08-1.887-1.946-.464-.865-.696-1.956-.696-3.27v-7.214c0-.19.067-.352.2-.48a.689.689 0 0 1 .496-.195h4.231c.196 0 .363.066.496.194.132.13.2.29.2.48v7.032c0 1.334.617 2 1.847 2 .59 0 1.049-.173 1.378-.52.331-.345.495-.838.495-1.48v-7.031c0-.19.068-.352.201-.48a.686.686 0 0 1 .495-.195h4.232c.178 0 .34.066.482.194.141.13.213.29.213.48v12.145c0 .19-.072.352-.213.48a.708.708 0 0 1-.482.195h-3.91a.687.687 0 0 1-.495-.194.645.645 0 0 1-.201-.48v-.935c-.446.64-1.054 1.111-1.822 1.415-.768.303-1.641.453-2.623.453Zm16.027 0c-.982 0-1.86-.18-2.637-.545-.777-.362-1.383-.851-1.822-1.467a3.47 3.47 0 0 1-.655-2.062c0-1.246.522-2.228 1.567-2.946s2.441-1.216 4.191-1.493l3.078-.467v-.181c0-.537-.085-.939-.254-1.207-.169-.268-.523-.402-1.059-.402-.373 0-.677.07-.909.208-.232.14-.446.338-.642.596a.91.91 0 0 1-.696.285h-3.777c-.196 0-.349-.052-.455-.154-.108-.105-.15-.243-.132-.415.018-.312.15-.679.4-1.102.25-.424.638-.838 1.165-1.246.527-.406 1.209-.745 2.049-1.013.84-.268 1.847-.402 3.027-.402 1.18 0 2.222.13 3.078.389.858.26 1.563.622 2.115 1.089a4.285 4.285 0 0 1 1.232 1.7c.268.666.401 1.405.401 2.22v7.681c0 .19-.068.352-.201.48a.687.687 0 0 1-.495.195h-3.91a.702.702 0 0 1-.482-.195.618.618 0 0 1-.214-.48v-.831c-.232.347-.54.648-.923.908-.385.26-.831.467-1.34.622a5.823 5.823 0 0 1-1.7.233v.002Zm1.551-3.4c.446 0 .834-.091 1.165-.272.331-.182.592-.463.79-.843.196-.38.295-.855.295-1.427v-.181l-1.928.362c-.659.122-1.123.299-1.391.532-.268.234-.401.49-.401.766 0 .208.063.389.187.546a1.3 1.3 0 0 0 .522.375 1.9 1.9 0 0 0 .764.142h-.003Zm9.593 3.141a.689.689 0 0 1-.496-.195.647.647 0 0 1-.2-.48V10.437c0-.19.068-.352.2-.48a.689.689 0 0 1 .496-.195h3.882c.196 0 .363.066.496.194.133.13.2.29.2.48v.96a6.253 6.253 0 0 1 1.836-1.193c.686-.295 1.441-.44 2.263-.44h1.205a.74.74 0 0 1 .509.193.63.63 0 0 1 .214.48v3.348a.67.67 0 0 1-.214.493.705.705 0 0 1-.509.208h-3c-.642 0-1.135.16-1.473.48-.34.32-.509.792-.509 1.414v6.202c0 .19-.067.352-.2.48a.689.689 0 0 1-.496.195h-4.204Zm18.438.259c-2.232 0-4.004-.558-5.315-1.674-1.313-1.115-1.986-2.823-2.022-5.124v-.52c.054-1.435.378-2.65.977-3.646.597-.995 1.437-1.752 2.518-2.27 1.081-.519 2.351-.779 3.815-.779 1.642 0 3.004.317 4.083.948 1.081.63 1.887 1.47 2.423 2.516.536 1.047.804 2.22.804 3.516v.726c0 .173-.072.33-.214.467a.71.71 0 0 1-.509.208h-8.247v.155c0 .414.059.783.174 1.102.114.32.299.572.549.753.25.18.554.273.91.273.232 0 .428-.035.59-.105.16-.07.299-.16.414-.273a4.79 4.79 0 0 0 .309-.325c.16-.155.295-.256.401-.3.108-.043.268-.065.482-.065h4.204c.16 0 .3.053.414.155a.431.431 0 0 1 .147.389c-.018.312-.169.687-.455 1.128-.286.44-.71.869-1.273 1.285-.563.415-1.281.762-2.155 1.04-.873.276-1.882.414-3.026.414l.002.006Zm-1.687-8.537h3.32v-.052c0-.467-.063-.865-.187-1.194-.126-.327-.313-.574-.563-.74-.25-.164-.554-.247-.91-.247s-.66.083-.91.247c-.25.164-.437.41-.563.74-.126.33-.187.727-.187 1.194v.052Zm-129.97 8.284a.702.702 0 0 1-.482-.194.618.618 0 0 1-.214-.48V5.764c0-.19.072-.352.214-.48a.702.702 0 0 1 .482-.195H50.39c.196 0 .365.066.509.195.142.128.214.29.214.48V9.06c0 .173-.072.33-.214.467a.704.704 0 0 1-.509.208h-7.956v2.856h7.422c.196 0 .365.066.51.195.141.128.213.29.213.48v3.271c0 .19-.072.351-.214.48a.739.739 0 0 1-.509.194h-7.422v5.376a.65.65 0 0 1-.2.48.687.687 0 0 1-.496.194h-4.26Zm18.179.259c-.982 0-1.863-.18-2.64-.545-.777-.364-1.385-.853-1.822-1.467a3.477 3.477 0 0 1-.655-2.064c0-1.246.523-2.228 1.567-2.946 1.045-.718 2.444-1.216 4.194-1.493l3.08-.467v-.181c0-.537-.085-.939-.254-1.207-.169-.268-.523-.402-1.058-.402-.377 0-.68.07-.913.208-.232.14-.446.338-.644.598a.914.914 0 0 1-.696.286H52.04c-.196 0-.35-.053-.455-.155a.479.479 0 0 1-.133-.415c.018-.312.151-.679.401-1.104.25-.424.637-.84 1.167-1.246.526-.406 1.209-.745 2.049-1.013.84-.269 1.849-.402 3.026-.402 1.178 0 2.223.13 3.081.389.858.26 1.563.624 2.117 1.091a4.285 4.285 0 0 1 1.232 1.7c.268.666.4 1.405.4 2.22v7.686c0 .19-.067.351-.2.48a.687.687 0 0 1-.495.194h-3.912a.702.702 0 0 1-.482-.194.618.618 0 0 1-.214-.48v-.832c-.232.347-.54.648-.923.908-.385.26-.83.467-1.34.624a5.828 5.828 0 0 1-1.7.234l-.002-.005Zm1.553-3.4c.446 0 .836-.091 1.167-.272.331-.182.595-.463.79-.845.196-.38.296-.858.296-1.427v-.181l-1.93.364c-.663.122-1.126.299-1.394.533-.268.233-.401.488-.401.766 0 .207.063.388.187.545.123.155.3.282.522.378.223.096.477.142.764.142v-.003Zm9.487 3.141a.687.687 0 0 1-.496-.194.645.645 0 0 1-.2-.48V10.435c0-.19.068-.351.2-.48a.687.687 0 0 1 .496-.194h3.966a.74.74 0 0 1 .509.194c.141.129.213.29.213.48v12.151c0 .19-.072.352-.213.48a.739.739 0 0 1-.51.195h-3.965Zm.054-15.187a.687.687 0 0 1-.496-.194.645.645 0 0 1-.2-.48V4.674c0-.19.068-.354.2-.494a.664.664 0 0 1 .496-.207h3.858c.195 0 .364.07.508.207a.67.67 0 0 1 .215.494V7.4c0 .19-.073.352-.215.48a.739.739 0 0 1-.508.195H66.75Zm6.477 15.187a.687.687 0 0 1-.495-.194.645.645 0 0 1-.2-.48V10.435c0-.19.067-.351.2-.48a.687.687 0 0 1 .495-.194h3.885c.196 0 .362.065.495.194s.2.29.2.48v.96a6.288 6.288 0 0 1 1.836-1.193c.687-.295 1.441-.441 2.263-.441h1.205c.196 0 .365.065.51.194.141.129.213.29.213.48v3.35c0 .19-.072.356-.214.493a.704.704 0 0 1-.509.207h-3c-.644 0-1.135.16-1.472.48-.34.322-.51.793-.51 1.415v6.204c0 .19-.067.352-.2.48a.687.687 0 0 1-.495.195h-4.207v.002Zm103.755-12.036a.077.077 0 0 1-.048-.018.061.061 0 0 1-.018-.046V9.96h-.437a.074.074 0 0 1-.047-.017.062.062 0 0 1-.018-.046v-.33a.07.07 0 0 1 .018-.046c.011-.013.029-.017.047-.017h1.428c.018 0 .034.006.047.017.014.011.018.029.018.046v.33a.066.066 0 0 1-.018.046.062.062 0 0 1-.047.017h-.437v1.202a.07.07 0 0 1-.018.046.062.062 0 0 1-.047.018h-.423Zm1.265 0a.072.072 0 0 1-.047-.018.06.06 0 0 1-.02-.046V9.567a.06.06 0 0 1 .02-.046.062.062 0 0 1 .047-.017h.338c.032 0 .054.009.068.024l.031.035.408.685.407-.685.032-.035c.016-.018.038-.024.067-.024h.338c.018 0 .034.006.048.017.013.011.018.029.018.046v1.595a.07.07 0 0 1-.018.046.066.066 0 0 1-.048.018h-.38a.077.077 0 0 1-.048-.018.061.061 0 0 1-.018-.046v-.798l-.229.388a.298.298 0 0 1-.034.04.084.084 0 0 1-.059.02h-.155c-.025 0-.043-.007-.056-.02a.238.238 0 0 1-.034-.04l-.23-.388v.798a.07.07 0 0 1-.018.046.062.062 0 0 1-.047.018h-.381Z" fill="#12075E"></path>
  </g>
  <defs>
    <linearGradient id="Layer_1__b" x1="0" y1="14.338" x2="30.251" y2="14.338" gradientUnits="userSpaceOnUse">
      <stop stop-color="#C80CFF"></stop>
      <stop offset=".51" stop-color="#380DF3"></stop>
      <stop offset="1" stop-color="#12075E"></stop>
    </linearGradient>
    <clipPath id="Layer_1__a">
      <path fill="#fff" transform="translate(0 .364)" d="M0 0h180v27.945H0z"></path>
    </clipPath>
  </defs>
</svg>
